<mxfile host="drawio-plugin" modified="2024-04-15T04:03:30.186Z" agent="5.0 (X11; Linux x86_64) AppleWebKit/537.36 (KHTML, like Gecko) Chrome/122.0.0.0 Safari/537.36" etag="y2T6Py3ApgEkA2QHk8p-" version="20.5.3" type="embed" pages="4"><diagram name="Criar um Profile" id="13e1069c-82ec-6db2-03f1-153e76fe0fe0"><mxGraphModel dx="473" dy="510" grid="1" gridSize="10" guides="1" tooltips="1" connect="1" arrows="1" fold="1" page="1" pageScale="1" pageWidth="1100" pageHeight="850" background="none" math="0" shadow="0"><root><mxCell id="0"/><mxCell id="1" parent="0"/><mxCell id="7baba1c4bc27f4b0-2" value="Interactor" style="shape=umlLifeline;perimeter=lifelinePerimeter;whiteSpace=wrap;html=1;container=1;collapsible=0;recursiveResize=0;outlineConnect=0;rounded=1;shadow=0;comic=0;labelBackgroundColor=none;strokeWidth=1;fontFamily=Verdana;fontSize=12;align=center;" parent="1" vertex="1"><mxGeometry x="240" y="90" width="100" height="350" as="geometry"/></mxCell><mxCell id="7baba1c4bc27f4b0-10" value="" style="html=1;points=[];perimeter=orthogonalPerimeter;rounded=0;shadow=0;comic=0;labelBackgroundColor=none;strokeWidth=1;fontFamily=Verdana;fontSize=12;align=center;" parent="7baba1c4bc27f4b0-2" vertex="1"><mxGeometry x="45" y="100" width="10" height="180" as="geometry"/></mxCell><mxCell id="MLvSfYOc4R1w90COKMQ8-6" value="Perfil jรก existe" style="html=1;verticalAlign=bottom;endArrow=block;labelBackgroundColor=none;fontFamily=Verdana;fontSize=12;elbow=vertical;edgeStyle=orthogonalEdgeStyle;curved=1;entryX=1;entryY=0.286;entryPerimeter=0;exitX=1.038;exitY=0.345;exitPerimeter=0;" parent="7baba1c4bc27f4b0-2" edge="1"><mxGeometry relative="1" as="geometry"><mxPoint x="50" y="138" as="sourcePoint"/><mxPoint x="55" y="176" as="targetPoint"/><Array as="points"><mxPoint x="105" y="138"/><mxPoint x="105" y="176"/></Array></mxGeometry></mxCell><mxCell id="7baba1c4bc27f4b0-34" value="" style="html=1;points=[];perimeter=orthogonalPerimeter;rounded=0;shadow=0;comic=0;labelBackgroundColor=none;strokeWidth=1;fontFamily=Verdana;fontSize=12;align=center;" parent="7baba1c4bc27f4b0-2" vertex="1"><mxGeometry x="50" y="130" width="10" height="70" as="geometry"/></mxCell><mxCell id="7baba1c4bc27f4b0-3" value="Gateway" style="shape=umlLifeline;perimeter=lifelinePerimeter;whiteSpace=wrap;html=1;container=1;collapsible=0;recursiveResize=0;outlineConnect=0;rounded=1;shadow=0;comic=0;labelBackgroundColor=none;strokeWidth=1;fontFamily=Verdana;fontSize=12;align=center;" parent="1" vertex="1"><mxGeometry x="400" y="80" width="100" height="360" as="geometry"/></mxCell><mxCell id="7baba1c4bc27f4b0-13" value="" style="html=1;points=[];perimeter=orthogonalPerimeter;rounded=0;shadow=0;comic=0;labelBackgroundColor=none;strokeWidth=1;fontFamily=Verdana;fontSize=12;align=center;" parent="7baba1c4bc27f4b0-3" vertex="1"><mxGeometry x="45" y="120" width="10" height="140" as="geometry"/></mxCell><mxCell id="7baba1c4bc27f4b0-4" value="Repository" style="shape=umlLifeline;perimeter=lifelinePerimeter;whiteSpace=wrap;html=1;container=1;collapsible=0;recursiveResize=0;outlineConnect=0;rounded=1;shadow=0;comic=0;labelBackgroundColor=none;strokeWidth=1;fontFamily=Verdana;fontSize=12;align=center;" parent="1" vertex="1"><mxGeometry x="600" y="80" width="100" height="360" as="geometry"/></mxCell><mxCell id="7baba1c4bc27f4b0-5" value="DB" style="shape=umlLifeline;perimeter=lifelinePerimeter;whiteSpace=wrap;html=1;container=1;collapsible=0;recursiveResize=0;outlineConnect=0;rounded=1;shadow=0;comic=0;labelBackgroundColor=none;strokeWidth=1;fontFamily=Verdana;fontSize=12;align=center;" parent="1" vertex="1"><mxGeometry x="800" y="80" width="100" height="360" as="geometry"/></mxCell><mxCell id="7baba1c4bc27f4b0-8" value="Controller" style="shape=umlLifeline;perimeter=lifelinePerimeter;whiteSpace=wrap;html=1;container=1;collapsible=0;recursiveResize=0;outlineConnect=0;rounded=1;shadow=0;comic=0;labelBackgroundColor=none;strokeWidth=1;fontFamily=Verdana;fontSize=12;align=center;" parent="1" vertex="1"><mxGeometry x="100" y="80" width="100" height="360" as="geometry"/></mxCell><mxCell id="7baba1c4bc27f4b0-9" value="" style="html=1;points=[];perimeter=orthogonalPerimeter;rounded=0;shadow=0;comic=0;labelBackgroundColor=none;strokeWidth=1;fontFamily=Verdana;fontSize=12;align=center;" parent="7baba1c4bc27f4b0-8" vertex="1"><mxGeometry x="45" y="100" width="10" height="180" as="geometry"/></mxCell><mxCell id="MLvSfYOc4R1w90COKMQ8-7" value="return (Response)" style="endArrow=classic;html=1;rounded=0;verticalAlign=bottom;dashed=1;" parent="7baba1c4bc27f4b0-8" edge="1"><mxGeometry width="50" height="50" relative="1" as="geometry"><mxPoint x="185" y="281" as="sourcePoint"/><mxPoint x="60" y="281" as="targetPoint"/></mxGeometry></mxCell><mxCell id="7baba1c4bc27f4b0-16" value="" style="html=1;points=[];perimeter=orthogonalPerimeter;rounded=0;shadow=0;comic=0;labelBackgroundColor=none;strokeWidth=1;fontFamily=Verdana;fontSize=12;align=center;" parent="1" vertex="1"><mxGeometry x="645" y="220" width="10" height="80" as="geometry"/></mxCell><mxCell id="7baba1c4bc27f4b0-17" value="save (Profile =&amp;gt; Profile Entity)" style="html=1;verticalAlign=bottom;endArrow=block;labelBackgroundColor=none;fontFamily=Verdana;fontSize=12;edgeStyle=elbowEdgeStyle;elbow=vertical;" parent="1" source="7baba1c4bc27f4b0-13" target="7baba1c4bc27f4b0-16" edge="1"><mxGeometry relative="1" as="geometry"><mxPoint x="510" y="220" as="sourcePoint"/><Array as="points"><mxPoint x="460" y="220"/></Array></mxGeometry></mxCell><mxCell id="7baba1c4bc27f4b0-19" value="" style="html=1;points=[];perimeter=orthogonalPerimeter;rounded=0;shadow=0;comic=0;labelBackgroundColor=none;strokeWidth=1;fontFamily=Verdana;fontSize=12;align=center;" parent="1" vertex="1"><mxGeometry x="845" y="230" width="10" height="40" as="geometry"/></mxCell><mxCell id="7baba1c4bc27f4b0-20" value="save (Profile Entity)" style="html=1;verticalAlign=bottom;endArrow=block;entryX=0;entryY=0;labelBackgroundColor=none;fontFamily=Verdana;fontSize=12;edgeStyle=elbowEdgeStyle;elbow=vertical;" parent="1" source="7baba1c4bc27f4b0-16" target="7baba1c4bc27f4b0-19" edge="1"><mxGeometry relative="1" as="geometry"><mxPoint x="710" y="230" as="sourcePoint"/></mxGeometry></mxCell><mxCell id="7baba1c4bc27f4b0-21" value="return (Profile Entity Saved)" style="html=1;verticalAlign=bottom;endArrow=open;dashed=1;endSize=8;labelBackgroundColor=none;fontFamily=Verdana;fontSize=12;edgeStyle=elbowEdgeStyle;elbow=vertical;exitX=0.4;exitY=1.075;exitDx=0;exitDy=0;exitPerimeter=0;" parent="1" source="7baba1c4bc27f4b0-19" target="7baba1c4bc27f4b0-16" edge="1"><mxGeometry relative="1" as="geometry"><mxPoint x="710" y="306" as="targetPoint"/><Array as="points"><mxPoint x="730" y="260"/><mxPoint x="760" y="260"/></Array></mxGeometry></mxCell><mxCell id="7baba1c4bc27f4b0-11" value="Request - Post (Dados)" style="html=1;verticalAlign=bottom;endArrow=block;entryX=0;entryY=0;labelBackgroundColor=none;fontFamily=Verdana;fontSize=12;edgeStyle=elbowEdgeStyle;elbow=vertical;" parent="1" source="7baba1c4bc27f4b0-9" target="7baba1c4bc27f4b0-10" edge="1"><mxGeometry relative="1" as="geometry"><mxPoint x="220" y="190" as="sourcePoint"/></mxGeometry></mxCell><mxCell id="7baba1c4bc27f4b0-14" value="Execute (Request)" style="html=1;verticalAlign=bottom;endArrow=block;entryX=0;entryY=0;labelBackgroundColor=none;fontFamily=Verdana;fontSize=12;edgeStyle=elbowEdgeStyle;elbow=vertical;" parent="1" source="7baba1c4bc27f4b0-10" target="7baba1c4bc27f4b0-13" edge="1"><mxGeometry relative="1" as="geometry"><mxPoint x="370" y="200" as="sourcePoint"/></mxGeometry></mxCell><mxCell id="7baba1c4bc27f4b0-40" value="Note" style="shape=note;whiteSpace=wrap;html=1;size=14;verticalAlign=top;align=left;spacingTop=-6;rounded=0;shadow=0;comic=0;labelBackgroundColor=none;strokeWidth=1;fontFamily=Verdana;fontSize=12" parent="1" vertex="1"><mxGeometry x="100" y="30" width="100" height="35" as="geometry"/></mxCell><mxCell id="7baba1c4bc27f4b0-41" value="Note" style="shape=note;whiteSpace=wrap;html=1;size=14;verticalAlign=top;align=left;spacingTop=-6;rounded=0;shadow=0;comic=0;labelBackgroundColor=none;strokeWidth=1;fontFamily=Verdana;fontSize=12" parent="1" vertex="1"><mxGeometry x="240" y="30" width="100" height="35" as="geometry"/></mxCell><mxCell id="7baba1c4bc27f4b0-42" value="Note" style="shape=note;whiteSpace=wrap;html=1;size=14;verticalAlign=top;align=left;spacingTop=-6;rounded=0;shadow=0;comic=0;labelBackgroundColor=none;strokeWidth=1;fontFamily=Verdana;fontSize=12" parent="1" vertex="1"><mxGeometry x="400" y="30" width="100" height="35" as="geometry"/></mxCell><mxCell id="7baba1c4bc27f4b0-43" value="Note" style="shape=note;whiteSpace=wrap;html=1;size=14;verticalAlign=top;align=left;spacingTop=-6;rounded=0;shadow=0;comic=0;labelBackgroundColor=none;strokeWidth=1;fontFamily=Verdana;fontSize=12" parent="1" vertex="1"><mxGeometry x="600" y="30" width="100" height="35" as="geometry"/></mxCell><mxCell id="7baba1c4bc27f4b0-44" value="Note" style="shape=note;whiteSpace=wrap;html=1;size=14;verticalAlign=top;align=left;spacingTop=-6;rounded=0;shadow=0;comic=0;labelBackgroundColor=none;strokeWidth=1;fontFamily=Verdana;fontSize=12" parent="1" vertex="1"><mxGeometry x="800" y="30" width="100" height="35" as="geometry"/></mxCell><mxCell id="MLvSfYOc4R1w90COKMQ8-2" value="return (Profile Entity =&amp;gt; Profle)" style="endArrow=classic;html=1;rounded=0;verticalAlign=bottom;dashed=1;entryX=0.8;entryY=0.721;entryDx=0;entryDy=0;entryPerimeter=0;" parent="1" source="7baba1c4bc27f4b0-4" target="7baba1c4bc27f4b0-13" edge="1"><mxGeometry x="0.0231" y="-20" width="50" height="50" relative="1" as="geometry"><mxPoint x="690" y="210" as="sourcePoint"/><mxPoint x="740" y="160" as="targetPoint"/><mxPoint as="offset"/></mxGeometry></mxCell><mxCell id="MLvSfYOc4R1w90COKMQ8-4" value="return (Profle Response)" style="endArrow=classic;html=1;rounded=0;verticalAlign=bottom;dashed=1;" parent="1" edge="1"><mxGeometry width="50" height="50" relative="1" as="geometry"><mxPoint x="449.5" y="336" as="sourcePoint"/><mxPoint x="289.5" y="336" as="targetPoint"/></mxGeometry></mxCell></root></mxGraphModel></diagram><diagram name="Adicionar Permissรตes a um perfil" id="pT4E0ll19s2u_1RZjeLr"><mxGraphModel dx="473" dy="510" grid="1" gridSize="10" guides="1" tooltips="1" connect="1" arrows="1" fold="1" page="1" pageScale="1" pageWidth="1100" pageHeight="850" background="none" math="0" shadow="0"><root><mxCell id="os7bqn_tPxvS5tQKEQsS-0"/><mxCell id="os7bqn_tPxvS5tQKEQsS-1" parent="os7bqn_tPxvS5tQKEQsS-0"/><mxCell id="os7bqn_tPxvS5tQKEQsS-2" value="Interactor" style="shape=umlLifeline;perimeter=lifelinePerimeter;whiteSpace=wrap;html=1;container=1;collapsible=0;recursiveResize=0;outlineConnect=0;rounded=1;shadow=0;comic=0;labelBackgroundColor=none;strokeWidth=1;fontFamily=Verdana;fontSize=12;align=center;" parent="os7bqn_tPxvS5tQKEQsS-1" vertex="1"><mxGeometry x="240" y="80" width="100" height="360" as="geometry"/></mxCell><mxCell id="os7bqn_tPxvS5tQKEQsS-3" value="" style="html=1;points=[];perimeter=orthogonalPerimeter;rounded=0;shadow=0;comic=0;labelBackgroundColor=none;strokeWidth=1;fontFamily=Verdana;fontSize=12;align=center;" parent="os7bqn_tPxvS5tQKEQsS-2" vertex="1"><mxGeometry x="45" y="100" width="10" height="180" as="geometry"/></mxCell><mxCell id="os7bqn_tPxvS5tQKEQsS-4" value="Perfil nรฃo existente" style="html=1;verticalAlign=bottom;endArrow=block;labelBackgroundColor=none;fontFamily=Verdana;fontSize=12;elbow=vertical;edgeStyle=orthogonalEdgeStyle;curved=1;entryX=1;entryY=0.286;entryPerimeter=0;exitX=1.038;exitY=0.345;exitPerimeter=0;" parent="os7bqn_tPxvS5tQKEQsS-2" edge="1"><mxGeometry relative="1" as="geometry"><mxPoint x="50" y="138" as="sourcePoint"/><mxPoint x="55" y="176" as="targetPoint"/><Array as="points"><mxPoint x="105" y="138"/><mxPoint x="105" y="176"/></Array></mxGeometry></mxCell><mxCell id="os7bqn_tPxvS5tQKEQsS-5" value="" style="html=1;points=[];perimeter=orthogonalPerimeter;rounded=0;shadow=0;comic=0;labelBackgroundColor=none;strokeWidth=1;fontFamily=Verdana;fontSize=12;align=center;" parent="os7bqn_tPxvS5tQKEQsS-2" vertex="1"><mxGeometry x="50" y="130" width="10" height="50" as="geometry"/></mxCell><mxCell id="os7bqn_tPxvS5tQKEQsS-6" value="Gateway" style="shape=umlLifeline;perimeter=lifelinePerimeter;whiteSpace=wrap;html=1;container=1;collapsible=0;recursiveResize=0;outlineConnect=0;rounded=1;shadow=0;comic=0;labelBackgroundColor=none;strokeWidth=1;fontFamily=Verdana;fontSize=12;align=center;" parent="os7bqn_tPxvS5tQKEQsS-1" vertex="1"><mxGeometry x="400" y="80" width="100" height="360" as="geometry"/></mxCell><mxCell id="os7bqn_tPxvS5tQKEQsS-7" value="" style="html=1;points=[];perimeter=orthogonalPerimeter;rounded=0;shadow=0;comic=0;labelBackgroundColor=none;strokeWidth=1;fontFamily=Verdana;fontSize=12;align=center;" parent="os7bqn_tPxvS5tQKEQsS-6" vertex="1"><mxGeometry x="45" y="120" width="10" height="140" as="geometry"/></mxCell><mxCell id="os7bqn_tPxvS5tQKEQsS-8" value="Repository" style="shape=umlLifeline;perimeter=lifelinePerimeter;whiteSpace=wrap;html=1;container=1;collapsible=0;recursiveResize=0;outlineConnect=0;rounded=1;shadow=0;comic=0;labelBackgroundColor=none;strokeWidth=1;fontFamily=Verdana;fontSize=12;align=center;" parent="os7bqn_tPxvS5tQKEQsS-1" vertex="1"><mxGeometry x="600" y="80" width="100" height="360" as="geometry"/></mxCell><mxCell id="os7bqn_tPxvS5tQKEQsS-9" value="DB" style="shape=umlLifeline;perimeter=lifelinePerimeter;whiteSpace=wrap;html=1;container=1;collapsible=0;recursiveResize=0;outlineConnect=0;rounded=1;shadow=0;comic=0;labelBackgroundColor=none;strokeWidth=1;fontFamily=Verdana;fontSize=12;align=center;" parent="os7bqn_tPxvS5tQKEQsS-1" vertex="1"><mxGeometry x="800" y="80" width="100" height="360" as="geometry"/></mxCell><mxCell id="os7bqn_tPxvS5tQKEQsS-10" value="Controller" style="shape=umlLifeline;perimeter=lifelinePerimeter;whiteSpace=wrap;html=1;container=1;collapsible=0;recursiveResize=0;outlineConnect=0;rounded=1;shadow=0;comic=0;labelBackgroundColor=none;strokeWidth=1;fontFamily=Verdana;fontSize=12;align=center;" parent="os7bqn_tPxvS5tQKEQsS-1" vertex="1"><mxGeometry x="100" y="80" width="100" height="360" as="geometry"/></mxCell><mxCell id="os7bqn_tPxvS5tQKEQsS-11" value="" style="html=1;points=[];perimeter=orthogonalPerimeter;rounded=0;shadow=0;comic=0;labelBackgroundColor=none;strokeWidth=1;fontFamily=Verdana;fontSize=12;align=center;" parent="os7bqn_tPxvS5tQKEQsS-10" vertex="1"><mxGeometry x="45" y="100" width="10" height="180" as="geometry"/></mxCell><mxCell id="os7bqn_tPxvS5tQKEQsS-12" value="return (Response)" style="endArrow=classic;html=1;rounded=0;verticalAlign=bottom;dashed=1;" parent="os7bqn_tPxvS5tQKEQsS-10" edge="1"><mxGeometry width="50" height="50" relative="1" as="geometry"><mxPoint x="185" y="281" as="sourcePoint"/><mxPoint x="60" y="281" as="targetPoint"/></mxGeometry></mxCell><mxCell id="os7bqn_tPxvS5tQKEQsS-13" value="" style="html=1;points=[];perimeter=orthogonalPerimeter;rounded=0;shadow=0;comic=0;labelBackgroundColor=none;strokeWidth=1;fontFamily=Verdana;fontSize=12;align=center;" parent="os7bqn_tPxvS5tQKEQsS-1" vertex="1"><mxGeometry x="645" y="220" width="10" height="80" as="geometry"/></mxCell><mxCell id="os7bqn_tPxvS5tQKEQsS-14" value="update (&amp;nbsp;&lt;span style=&quot;background-color: initial;&quot;&gt;Profile =&amp;gt; Profile Entity&lt;/span&gt;&lt;span style=&quot;background-color: initial;&quot;&gt;)&lt;/span&gt;" style="html=1;verticalAlign=bottom;endArrow=block;labelBackgroundColor=none;fontFamily=Verdana;fontSize=12;edgeStyle=elbowEdgeStyle;elbow=vertical;" parent="os7bqn_tPxvS5tQKEQsS-1" source="os7bqn_tPxvS5tQKEQsS-7" target="os7bqn_tPxvS5tQKEQsS-13" edge="1"><mxGeometry relative="1" as="geometry"><mxPoint x="510" y="220" as="sourcePoint"/><Array as="points"><mxPoint x="460" y="220"/></Array></mxGeometry></mxCell><mxCell id="os7bqn_tPxvS5tQKEQsS-15" value="" style="html=1;points=[];perimeter=orthogonalPerimeter;rounded=0;shadow=0;comic=0;labelBackgroundColor=none;strokeWidth=1;fontFamily=Verdana;fontSize=12;align=center;" parent="os7bqn_tPxvS5tQKEQsS-1" vertex="1"><mxGeometry x="845" y="230" width="10" height="40" as="geometry"/></mxCell><mxCell id="os7bqn_tPxvS5tQKEQsS-16" value="update (Profile Entity)" style="html=1;verticalAlign=bottom;endArrow=block;entryX=0;entryY=0;labelBackgroundColor=none;fontFamily=Verdana;fontSize=12;edgeStyle=elbowEdgeStyle;elbow=vertical;" parent="os7bqn_tPxvS5tQKEQsS-1" edge="1"><mxGeometry relative="1" as="geometry"><mxPoint x="655" y="230" as="sourcePoint"/><mxPoint x="845" y="230" as="targetPoint"/></mxGeometry></mxCell><mxCell id="os7bqn_tPxvS5tQKEQsS-17" value="return (Profile Entity Saved)" style="html=1;verticalAlign=bottom;endArrow=open;dashed=1;endSize=8;labelBackgroundColor=none;fontFamily=Verdana;fontSize=12;edgeStyle=elbowEdgeStyle;elbow=vertical;exitX=0.4;exitY=1.075;exitDx=0;exitDy=0;exitPerimeter=0;" parent="os7bqn_tPxvS5tQKEQsS-1" source="os7bqn_tPxvS5tQKEQsS-15" target="os7bqn_tPxvS5tQKEQsS-13" edge="1"><mxGeometry relative="1" as="geometry"><mxPoint x="710" y="306" as="targetPoint"/><Array as="points"><mxPoint x="730" y="260"/><mxPoint x="760" y="260"/></Array></mxGeometry></mxCell><mxCell id="os7bqn_tPxvS5tQKEQsS-18" value="Request - Post (Dados)" style="html=1;verticalAlign=bottom;endArrow=block;entryX=0;entryY=0;labelBackgroundColor=none;fontFamily=Verdana;fontSize=12;edgeStyle=elbowEdgeStyle;elbow=vertical;" parent="os7bqn_tPxvS5tQKEQsS-1" source="os7bqn_tPxvS5tQKEQsS-11" target="os7bqn_tPxvS5tQKEQsS-3" edge="1"><mxGeometry relative="1" as="geometry"><mxPoint x="220" y="190" as="sourcePoint"/></mxGeometry></mxCell><mxCell id="os7bqn_tPxvS5tQKEQsS-19" value="Execute (Request)" style="html=1;verticalAlign=bottom;endArrow=block;entryX=0;entryY=0;labelBackgroundColor=none;fontFamily=Verdana;fontSize=12;edgeStyle=elbowEdgeStyle;elbow=vertical;" parent="os7bqn_tPxvS5tQKEQsS-1" source="os7bqn_tPxvS5tQKEQsS-3" target="os7bqn_tPxvS5tQKEQsS-7" edge="1"><mxGeometry relative="1" as="geometry"><mxPoint x="370" y="200" as="sourcePoint"/></mxGeometry></mxCell><mxCell id="os7bqn_tPxvS5tQKEQsS-20" value="&lt;font style=&quot;font-size: 8px;&quot;&gt;Dados&amp;nbsp; =&amp;nbsp;&lt;br&gt;ProfileId + Lista de permissoes&lt;/font&gt;" style="shape=note;whiteSpace=wrap;html=1;size=14;verticalAlign=top;align=left;spacingTop=-6;rounded=0;shadow=0;comic=0;labelBackgroundColor=none;strokeWidth=1;fontFamily=Verdana;fontSize=12" parent="os7bqn_tPxvS5tQKEQsS-1" vertex="1"><mxGeometry x="100" y="30" width="100" height="35" as="geometry"/></mxCell><mxCell id="os7bqn_tPxvS5tQKEQsS-21" value="Note" style="shape=note;whiteSpace=wrap;html=1;size=14;verticalAlign=top;align=left;spacingTop=-6;rounded=0;shadow=0;comic=0;labelBackgroundColor=none;strokeWidth=1;fontFamily=Verdana;fontSize=12" parent="os7bqn_tPxvS5tQKEQsS-1" vertex="1"><mxGeometry x="240" y="30" width="100" height="35" as="geometry"/></mxCell><mxCell id="os7bqn_tPxvS5tQKEQsS-22" value="Note" style="shape=note;whiteSpace=wrap;html=1;size=14;verticalAlign=top;align=left;spacingTop=-6;rounded=0;shadow=0;comic=0;labelBackgroundColor=none;strokeWidth=1;fontFamily=Verdana;fontSize=12" parent="os7bqn_tPxvS5tQKEQsS-1" vertex="1"><mxGeometry x="400" y="30" width="100" height="35" as="geometry"/></mxCell><mxCell id="os7bqn_tPxvS5tQKEQsS-23" value="Note" style="shape=note;whiteSpace=wrap;html=1;size=14;verticalAlign=top;align=left;spacingTop=-6;rounded=0;shadow=0;comic=0;labelBackgroundColor=none;strokeWidth=1;fontFamily=Verdana;fontSize=12" parent="os7bqn_tPxvS5tQKEQsS-1" vertex="1"><mxGeometry x="600" y="30" width="100" height="35" as="geometry"/></mxCell><mxCell id="os7bqn_tPxvS5tQKEQsS-24" value="Note" style="shape=note;whiteSpace=wrap;html=1;size=14;verticalAlign=top;align=left;spacingTop=-6;rounded=0;shadow=0;comic=0;labelBackgroundColor=none;strokeWidth=1;fontFamily=Verdana;fontSize=12" parent="os7bqn_tPxvS5tQKEQsS-1" vertex="1"><mxGeometry x="800" y="30" width="100" height="35" as="geometry"/></mxCell><mxCell id="os7bqn_tPxvS5tQKEQsS-25" value="return (Profile Entity =&amp;gt; Profle)" style="endArrow=classic;html=1;rounded=0;verticalAlign=top;dashed=1;entryX=0.8;entryY=0.721;entryDx=0;entryDy=0;entryPerimeter=0;" parent="os7bqn_tPxvS5tQKEQsS-1" source="os7bqn_tPxvS5tQKEQsS-8" target="os7bqn_tPxvS5tQKEQsS-7" edge="1"><mxGeometry x="0.0231" y="-20" width="50" height="50" relative="1" as="geometry"><mxPoint x="690" y="210" as="sourcePoint"/><mxPoint x="740" y="160" as="targetPoint"/><mxPoint as="offset"/></mxGeometry></mxCell><mxCell id="os7bqn_tPxvS5tQKEQsS-26" value="return (Profle Response)" style="endArrow=classic;html=1;rounded=0;verticalAlign=bottom;dashed=1;" parent="os7bqn_tPxvS5tQKEQsS-1" edge="1"><mxGeometry width="50" height="50" relative="1" as="geometry"><mxPoint x="449.5" y="336" as="sourcePoint"/><mxPoint x="289.5" y="336" as="targetPoint"/></mxGeometry></mxCell><mxCell id="R_3qFdkGi8y7v4Q3u5Hk-0" value="Permissรฃo jรก vinculado" style="html=1;verticalAlign=bottom;endArrow=block;labelBackgroundColor=none;fontFamily=Verdana;fontSize=12;elbow=vertical;edgeStyle=orthogonalEdgeStyle;curved=1;entryX=1;entryY=0.286;entryPerimeter=0;exitX=1.038;exitY=0.345;exitPerimeter=0;align=center;" parent="os7bqn_tPxvS5tQKEQsS-1" edge="1"><mxGeometry relative="1" as="geometry"><mxPoint x="290" y="270" as="sourcePoint"/><mxPoint x="295" y="308" as="targetPoint"/><Array as="points"><mxPoint x="345" y="270"/><mxPoint x="345" y="308"/></Array></mxGeometry></mxCell><mxCell id="R_3qFdkGi8y7v4Q3u5Hk-1" value="" style="html=1;points=[];perimeter=orthogonalPerimeter;rounded=0;shadow=0;comic=0;labelBackgroundColor=none;strokeWidth=1;fontFamily=Verdana;fontSize=12;align=center;" parent="os7bqn_tPxvS5tQKEQsS-1" vertex="1"><mxGeometry x="290" y="262" width="10" height="50" as="geometry"/></mxCell></root></mxGraphModel></diagram><diagram name="Vincular Usuรกrio a uma perfil" id="8QTVz1ZLKCFnLJ-PjEbW"><mxGraphModel dx="473" dy="510" grid="1" gridSize="10" guides="1" tooltips="1" connect="1" arrows="1" fold="1" page="1" pageScale="1" pageWidth="1100" pageHeight="850" background="none" math="0" shadow="0"><root><mxCell id="FdJ2btjqhDb8zojgB_Ql-0"/><mxCell id="FdJ2btjqhDb8zojgB_Ql-1" parent="FdJ2btjqhDb8zojgB_Ql-0"/><mxCell id="FdJ2btjqhDb8zojgB_Ql-2" value="Interactor" style="shape=umlLifeline;perimeter=lifelinePerimeter;whiteSpace=wrap;html=1;container=1;collapsible=0;recursiveResize=0;outlineConnect=0;rounded=1;shadow=0;comic=0;labelBackgroundColor=none;strokeWidth=1;fontFamily=Verdana;fontSize=12;align=center;" parent="FdJ2btjqhDb8zojgB_Ql-1" vertex="1"><mxGeometry x="240" y="80" width="100" height="360" as="geometry"/></mxCell><mxCell id="FdJ2btjqhDb8zojgB_Ql-3" value="" style="html=1;points=[];perimeter=orthogonalPerimeter;rounded=0;shadow=0;comic=0;labelBackgroundColor=none;strokeWidth=1;fontFamily=Verdana;fontSize=12;align=center;" parent="FdJ2btjqhDb8zojgB_Ql-2" vertex="1"><mxGeometry x="45" y="100" width="10" height="180" as="geometry"/></mxCell><mxCell id="FdJ2btjqhDb8zojgB_Ql-4" value="Perfil nรฃo existente" style="html=1;verticalAlign=bottom;endArrow=block;labelBackgroundColor=none;fontFamily=Verdana;fontSize=12;elbow=vertical;edgeStyle=orthogonalEdgeStyle;curved=1;entryX=1;entryY=0.286;entryPerimeter=0;exitX=1.038;exitY=0.345;exitPerimeter=0;" parent="FdJ2btjqhDb8zojgB_Ql-2" edge="1"><mxGeometry relative="1" as="geometry"><mxPoint x="50" y="138" as="sourcePoint"/><mxPoint x="55" y="176" as="targetPoint"/><Array as="points"><mxPoint x="105" y="138"/><mxPoint x="105" y="176"/></Array></mxGeometry></mxCell><mxCell id="FdJ2btjqhDb8zojgB_Ql-5" value="" style="html=1;points=[];perimeter=orthogonalPerimeter;rounded=0;shadow=0;comic=0;labelBackgroundColor=none;strokeWidth=1;fontFamily=Verdana;fontSize=12;align=center;" parent="FdJ2btjqhDb8zojgB_Ql-2" vertex="1"><mxGeometry x="50" y="130" width="10" height="50" as="geometry"/></mxCell><mxCell id="FdJ2btjqhDb8zojgB_Ql-6" value="Gateway" style="shape=umlLifeline;perimeter=lifelinePerimeter;whiteSpace=wrap;html=1;container=1;collapsible=0;recursiveResize=0;outlineConnect=0;rounded=1;shadow=0;comic=0;labelBackgroundColor=none;strokeWidth=1;fontFamily=Verdana;fontSize=12;align=center;" parent="FdJ2btjqhDb8zojgB_Ql-1" vertex="1"><mxGeometry x="400" y="80" width="100" height="360" as="geometry"/></mxCell><mxCell id="FdJ2btjqhDb8zojgB_Ql-7" value="" style="html=1;points=[];perimeter=orthogonalPerimeter;rounded=0;shadow=0;comic=0;labelBackgroundColor=none;strokeWidth=1;fontFamily=Verdana;fontSize=12;align=center;" parent="FdJ2btjqhDb8zojgB_Ql-6" vertex="1"><mxGeometry x="45" y="120" width="10" height="140" as="geometry"/></mxCell><mxCell id="FdJ2btjqhDb8zojgB_Ql-8" value="Repository" style="shape=umlLifeline;perimeter=lifelinePerimeter;whiteSpace=wrap;html=1;container=1;collapsible=0;recursiveResize=0;outlineConnect=0;rounded=1;shadow=0;comic=0;labelBackgroundColor=none;strokeWidth=1;fontFamily=Verdana;fontSize=12;align=center;" parent="FdJ2btjqhDb8zojgB_Ql-1" vertex="1"><mxGeometry x="600" y="80" width="100" height="360" as="geometry"/></mxCell><mxCell id="FdJ2btjqhDb8zojgB_Ql-9" value="DB" style="shape=umlLifeline;perimeter=lifelinePerimeter;whiteSpace=wrap;html=1;container=1;collapsible=0;recursiveResize=0;outlineConnect=0;rounded=1;shadow=0;comic=0;labelBackgroundColor=none;strokeWidth=1;fontFamily=Verdana;fontSize=12;align=center;" parent="FdJ2btjqhDb8zojgB_Ql-1" vertex="1"><mxGeometry x="800" y="80" width="100" height="360" as="geometry"/></mxCell><mxCell id="FdJ2btjqhDb8zojgB_Ql-10" value="Controller" style="shape=umlLifeline;perimeter=lifelinePerimeter;whiteSpace=wrap;html=1;container=1;collapsible=0;recursiveResize=0;outlineConnect=0;rounded=1;shadow=0;comic=0;labelBackgroundColor=none;strokeWidth=1;fontFamily=Verdana;fontSize=12;align=center;" parent="FdJ2btjqhDb8zojgB_Ql-1" vertex="1"><mxGeometry x="100" y="80" width="100" height="360" as="geometry"/></mxCell><mxCell id="FdJ2btjqhDb8zojgB_Ql-11" value="" style="html=1;points=[];perimeter=orthogonalPerimeter;rounded=0;shadow=0;comic=0;labelBackgroundColor=none;strokeWidth=1;fontFamily=Verdana;fontSize=12;align=center;" parent="FdJ2btjqhDb8zojgB_Ql-10" vertex="1"><mxGeometry x="45" y="100" width="10" height="180" as="geometry"/></mxCell><mxCell id="FdJ2btjqhDb8zojgB_Ql-12" value="return (Response)" style="endArrow=classic;html=1;rounded=0;verticalAlign=bottom;dashed=1;" parent="FdJ2btjqhDb8zojgB_Ql-10" edge="1"><mxGeometry width="50" height="50" relative="1" as="geometry"><mxPoint x="185" y="281" as="sourcePoint"/><mxPoint x="60" y="281" as="targetPoint"/></mxGeometry></mxCell><mxCell id="FdJ2btjqhDb8zojgB_Ql-13" value="" style="html=1;points=[];perimeter=orthogonalPerimeter;rounded=0;shadow=0;comic=0;labelBackgroundColor=none;strokeWidth=1;fontFamily=Verdana;fontSize=12;align=center;" parent="FdJ2btjqhDb8zojgB_Ql-1" vertex="1"><mxGeometry x="645" y="220" width="10" height="80" as="geometry"/></mxCell><mxCell id="FdJ2btjqhDb8zojgB_Ql-14" value="update (&amp;nbsp;&lt;span style=&quot;background-color: initial;&quot;&gt;Profile =&amp;gt; Profile Entity,&lt;/span&gt;&lt;div&gt;&lt;span style=&quot;background-color: initial;&quot;&gt;User =&amp;gt; User Entity,&lt;/span&gt;&lt;/div&gt;&lt;div&gt;&lt;span style=&quot;background-color: initial;&quot;&gt;Backoffice =&amp;gt; Backoffice Entity)&lt;/span&gt;&lt;/div&gt;" style="html=1;verticalAlign=bottom;endArrow=block;labelBackgroundColor=none;fontFamily=Verdana;fontSize=12;edgeStyle=elbowEdgeStyle;elbow=vertical;" parent="FdJ2btjqhDb8zojgB_Ql-1" source="FdJ2btjqhDb8zojgB_Ql-7" target="FdJ2btjqhDb8zojgB_Ql-13" edge="1"><mxGeometry relative="1" as="geometry"><mxPoint x="510" y="220" as="sourcePoint"/><Array as="points"><mxPoint x="460" y="220"/></Array></mxGeometry></mxCell><mxCell id="FdJ2btjqhDb8zojgB_Ql-15" value="" style="html=1;points=[];perimeter=orthogonalPerimeter;rounded=0;shadow=0;comic=0;labelBackgroundColor=none;strokeWidth=1;fontFamily=Verdana;fontSize=12;align=center;" parent="FdJ2btjqhDb8zojgB_Ql-1" vertex="1"><mxGeometry x="845" y="230" width="10" height="40" as="geometry"/></mxCell><mxCell id="FdJ2btjqhDb8zojgB_Ql-16" value="update (Profile Entity, User Entity,&amp;nbsp;&lt;div&gt;Backoffice Entity)&lt;/div&gt;" style="html=1;verticalAlign=bottom;endArrow=block;entryX=0;entryY=0;labelBackgroundColor=none;fontFamily=Verdana;fontSize=12;edgeStyle=elbowEdgeStyle;elbow=vertical;" parent="FdJ2btjqhDb8zojgB_Ql-1" edge="1"><mxGeometry relative="1" as="geometry"><mxPoint x="655" y="230" as="sourcePoint"/><mxPoint x="845" y="230" as="targetPoint"/></mxGeometry></mxCell><mxCell id="FdJ2btjqhDb8zojgB_Ql-17" value="return (Profile Entity Saved,&amp;nbsp;&lt;div&gt;User Entity Saved,&lt;/div&gt;&lt;div&gt;Backoffice Entity Saved)&lt;/div&gt;" style="html=1;verticalAlign=top;endArrow=open;dashed=1;endSize=8;labelBackgroundColor=none;fontFamily=Verdana;fontSize=12;edgeStyle=elbowEdgeStyle;elbow=vertical;exitX=0.4;exitY=1.075;exitDx=0;exitDy=0;exitPerimeter=0;" parent="FdJ2btjqhDb8zojgB_Ql-1" source="FdJ2btjqhDb8zojgB_Ql-15" target="FdJ2btjqhDb8zojgB_Ql-13" edge="1"><mxGeometry relative="1" as="geometry"><mxPoint x="710" y="306" as="targetPoint"/><Array as="points"><mxPoint x="730" y="260"/><mxPoint x="760" y="260"/></Array></mxGeometry></mxCell><mxCell id="FdJ2btjqhDb8zojgB_Ql-18" value="Request - Post (Dados)" style="html=1;verticalAlign=bottom;endArrow=block;entryX=0;entryY=0;labelBackgroundColor=none;fontFamily=Verdana;fontSize=12;edgeStyle=elbowEdgeStyle;elbow=vertical;" parent="FdJ2btjqhDb8zojgB_Ql-1" source="FdJ2btjqhDb8zojgB_Ql-11" target="FdJ2btjqhDb8zojgB_Ql-3" edge="1"><mxGeometry relative="1" as="geometry"><mxPoint x="220" y="190" as="sourcePoint"/></mxGeometry></mxCell><mxCell id="FdJ2btjqhDb8zojgB_Ql-19" value="Execute (Request)" style="html=1;verticalAlign=bottom;endArrow=block;entryX=0;entryY=0;labelBackgroundColor=none;fontFamily=Verdana;fontSize=12;edgeStyle=elbowEdgeStyle;elbow=vertical;" parent="FdJ2btjqhDb8zojgB_Ql-1" source="FdJ2btjqhDb8zojgB_Ql-3" target="FdJ2btjqhDb8zojgB_Ql-7" edge="1"><mxGeometry relative="1" as="geometry"><mxPoint x="370" y="200" as="sourcePoint"/></mxGeometry></mxCell><mxCell id="FdJ2btjqhDb8zojgB_Ql-20" value="&lt;font style=&quot;font-size: 8px;&quot;&gt;Dados&amp;nbsp; =&amp;nbsp;&lt;br&gt;ProfileId +UserId&lt;/font&gt;" style="shape=note;whiteSpace=wrap;html=1;size=14;verticalAlign=top;align=left;spacingTop=-6;rounded=0;shadow=0;comic=0;labelBackgroundColor=none;strokeWidth=1;fontFamily=Verdana;fontSize=12" parent="FdJ2btjqhDb8zojgB_Ql-1" vertex="1"><mxGeometry x="100" y="30" width="100" height="35" as="geometry"/></mxCell><mxCell id="FdJ2btjqhDb8zojgB_Ql-21" value="Note" style="shape=note;whiteSpace=wrap;html=1;size=14;verticalAlign=top;align=left;spacingTop=-6;rounded=0;shadow=0;comic=0;labelBackgroundColor=none;strokeWidth=1;fontFamily=Verdana;fontSize=12" parent="FdJ2btjqhDb8zojgB_Ql-1" vertex="1"><mxGeometry x="240" y="30" width="100" height="35" as="geometry"/></mxCell><mxCell id="FdJ2btjqhDb8zojgB_Ql-22" value="Note" style="shape=note;whiteSpace=wrap;html=1;size=14;verticalAlign=top;align=left;spacingTop=-6;rounded=0;shadow=0;comic=0;labelBackgroundColor=none;strokeWidth=1;fontFamily=Verdana;fontSize=12" parent="FdJ2btjqhDb8zojgB_Ql-1" vertex="1"><mxGeometry x="400" y="30" width="100" height="35" as="geometry"/></mxCell><mxCell id="FdJ2btjqhDb8zojgB_Ql-23" value="Note" style="shape=note;whiteSpace=wrap;html=1;size=14;verticalAlign=top;align=left;spacingTop=-6;rounded=0;shadow=0;comic=0;labelBackgroundColor=none;strokeWidth=1;fontFamily=Verdana;fontSize=12" parent="FdJ2btjqhDb8zojgB_Ql-1" vertex="1"><mxGeometry x="600" y="30" width="100" height="35" as="geometry"/></mxCell><mxCell id="FdJ2btjqhDb8zojgB_Ql-24" value="Note" style="shape=note;whiteSpace=wrap;html=1;size=14;verticalAlign=top;align=left;spacingTop=-6;rounded=0;shadow=0;comic=0;labelBackgroundColor=none;strokeWidth=1;fontFamily=Verdana;fontSize=12" parent="FdJ2btjqhDb8zojgB_Ql-1" vertex="1"><mxGeometry x="800" y="30" width="100" height="35" as="geometry"/></mxCell><mxCell id="FdJ2btjqhDb8zojgB_Ql-25" value="return (Profile Entity =&amp;gt; Profile)" style="endArrow=classic;html=1;rounded=0;verticalAlign=top;dashed=1;entryX=0.8;entryY=0.721;entryDx=0;entryDy=0;entryPerimeter=0;" parent="FdJ2btjqhDb8zojgB_Ql-1" source="FdJ2btjqhDb8zojgB_Ql-8" target="FdJ2btjqhDb8zojgB_Ql-7" edge="1"><mxGeometry x="0.0231" y="-20" width="50" height="50" relative="1" as="geometry"><mxPoint x="690" y="210" as="sourcePoint"/><mxPoint x="740" y="160" as="targetPoint"/><mxPoint as="offset"/></mxGeometry></mxCell><mxCell id="FdJ2btjqhDb8zojgB_Ql-26" value="return (Profle Response)" style="endArrow=classic;html=1;rounded=0;verticalAlign=bottom;dashed=1;" parent="FdJ2btjqhDb8zojgB_Ql-1" edge="1"><mxGeometry width="50" height="50" relative="1" as="geometry"><mxPoint x="449.5" y="336" as="sourcePoint"/><mxPoint x="289.5" y="336" as="targetPoint"/></mxGeometry></mxCell><mxCell id="FdJ2btjqhDb8zojgB_Ql-27" value="Usuรกrio nรฃo existente" style="html=1;verticalAlign=bottom;endArrow=block;labelBackgroundColor=none;fontFamily=Verdana;fontSize=12;elbow=vertical;edgeStyle=orthogonalEdgeStyle;curved=1;entryX=1;entryY=0.286;entryPerimeter=0;exitX=1.038;exitY=0.345;exitPerimeter=0;align=center;" parent="FdJ2btjqhDb8zojgB_Ql-1" edge="1"><mxGeometry relative="1" as="geometry"><mxPoint x="290" y="270" as="sourcePoint"/><mxPoint x="295" y="308" as="targetPoint"/><Array as="points"><mxPoint x="345" y="270"/><mxPoint x="345" y="308"/></Array></mxGeometry></mxCell><mxCell id="FdJ2btjqhDb8zojgB_Ql-28" value="" style="html=1;points=[];perimeter=orthogonalPerimeter;rounded=0;shadow=0;comic=0;labelBackgroundColor=none;strokeWidth=1;fontFamily=Verdana;fontSize=12;align=center;" parent="FdJ2btjqhDb8zojgB_Ql-1" vertex="1"><mxGeometry x="290" y="262" width="10" height="50" as="geometry"/></mxCell></root></mxGraphModel></diagram><diagram id="d6U63tdH7hXU5nQJg4Hp" name="Fluxo de autenticaรงรฃo"><mxGraphModel dx="473" dy="510" grid="1" gridSize="10" guides="1" tooltips="1" connect="1" arrows="1" fold="1" page="1" pageScale="1" pageWidth="827" pageHeight="1169" math="0" shadow="0"><root><mxCell id="0"/><mxCell id="1" parent="0"/><mxCell id="_XFKa4FcC08eO0B2JzQi-99" value="" style="rounded=0;whiteSpace=wrap;html=1;align=left;" parent="1" vertex="1"><mxGeometry x="100" y="210" width="740" height="670" as="geometry"/></mxCell><mxCell id="_XFKa4FcC08eO0B2JzQi-82" style="edgeStyle=orthogonalEdgeStyle;rounded=0;orthogonalLoop=1;jettySize=auto;html=1;entryX=0;entryY=0.5;entryDx=0;entryDy=0;" parent="1" source="_XFKa4FcC08eO0B2JzQi-66" target="_XFKa4FcC08eO0B2JzQi-76" edge="1"><mxGeometry relative="1" as="geometry"/></mxCell><mxCell id="_XFKa4FcC08eO0B2JzQi-93" value="&lt;font style=&quot;font-size: 14px;&quot;&gt;HTTP Request&lt;/font&gt;" style="edgeLabel;html=1;align=center;verticalAlign=middle;resizable=0;points=[];" parent="_XFKa4FcC08eO0B2JzQi-82" vertex="1" connectable="0"><mxGeometry x="-0.2959" y="-2" relative="1" as="geometry"><mxPoint as="offset"/></mxGeometry></mxCell><mxCell id="_XFKa4FcC08eO0B2JzQi-66" value="Actor" style="shape=umlActor;verticalLabelPosition=bottom;verticalAlign=top;html=1;outlineConnect=0;" parent="1" vertex="1"><mxGeometry x="10" y="490" width="30" height="60" as="geometry"/></mxCell><mxCell id="_XFKa4FcC08eO0B2JzQi-69" value="DB" style="shape=cylinder3;whiteSpace=wrap;html=1;boundedLbl=1;backgroundOutline=1;size=15;" parent="1" vertex="1"><mxGeometry x="870" y="465" width="80" height="110" as="geometry"/></mxCell><mxCell id="_XFKa4FcC08eO0B2JzQi-90" style="edgeStyle=orthogonalEdgeStyle;rounded=0;orthogonalLoop=1;jettySize=auto;html=1;entryX=0.75;entryY=0;entryDx=0;entryDy=0;" parent="1" source="_XFKa4FcC08eO0B2JzQi-70" target="_XFKa4FcC08eO0B2JzQi-76" edge="1"><mxGeometry relative="1" as="geometry"><Array as="points"><mxPoint x="310" y="380"/></Array></mxGeometry></mxCell><mxCell id="_XFKa4FcC08eO0B2JzQi-70" value="User Details" style="ellipse;whiteSpace=wrap;html=1;aspect=fixed;" parent="1" vertex="1"><mxGeometry x="520" y="320" width="80" height="80" as="geometry"/></mxCell><mxCell id="_XFKa4FcC08eO0B2JzQi-84" style="edgeStyle=orthogonalEdgeStyle;rounded=0;orthogonalLoop=1;jettySize=auto;html=1;entryX=0;entryY=0.5;entryDx=0;entryDy=0;" parent="1" source="_XFKa4FcC08eO0B2JzQi-74" target="_XFKa4FcC08eO0B2JzQi-78" edge="1"><mxGeometry relative="1" as="geometry"><Array as="points"><mxPoint x="477" y="470"/><mxPoint x="477" y="660"/></Array></mxGeometry></mxCell><mxCell id="_XFKa4FcC08eO0B2JzQi-91" style="edgeStyle=orthogonalEdgeStyle;rounded=0;orthogonalLoop=1;jettySize=auto;html=1;entryX=0.5;entryY=0;entryDx=0;entryDy=0;" parent="1" source="_XFKa4FcC08eO0B2JzQi-74" target="_XFKa4FcC08eO0B2JzQi-77" edge="1"><mxGeometry relative="1" as="geometry"/></mxCell><mxCell id="_XFKa4FcC08eO0B2JzQi-74" value="Validate&lt;div&gt;JWT&lt;/div&gt;" style="rhombus;whiteSpace=wrap;html=1;" parent="1" vertex="1"><mxGeometry x="374" y="405" width="80" height="80" as="geometry"/></mxCell><mxCell id="_XFKa4FcC08eO0B2JzQi-83" style="edgeStyle=orthogonalEdgeStyle;rounded=0;orthogonalLoop=1;jettySize=auto;html=1;entryX=0.5;entryY=1;entryDx=0;entryDy=0;" parent="1" source="_XFKa4FcC08eO0B2JzQi-76" target="_XFKa4FcC08eO0B2JzQi-74" edge="1"><mxGeometry relative="1" as="geometry"/></mxCell><mxCell id="_XFKa4FcC08eO0B2JzQi-86" style="edgeStyle=orthogonalEdgeStyle;rounded=0;orthogonalLoop=1;jettySize=auto;html=1;entryX=0;entryY=0.5;entryDx=0;entryDy=0;" parent="1" source="_XFKa4FcC08eO0B2JzQi-76" target="_XFKa4FcC08eO0B2JzQi-70" edge="1"><mxGeometry relative="1" as="geometry"><Array as="points"><mxPoint x="280" y="360"/></Array></mxGeometry></mxCell><mxCell id="_XFKa4FcC08eO0B2JzQi-76" value="JWT Authentication FIlter" style="rounded=0;whiteSpace=wrap;html=1;" parent="1" vertex="1"><mxGeometry x="220" y="490" width="120" height="60" as="geometry"/></mxCell><mxCell id="_XFKa4FcC08eO0B2JzQi-77" value="JWT Service" style="rounded=0;whiteSpace=wrap;html=1;" parent="1" vertex="1"><mxGeometry x="580" y="490" width="120" height="60" as="geometry"/></mxCell><mxCell id="_XFKa4FcC08eO0B2JzQi-81" style="edgeStyle=orthogonalEdgeStyle;rounded=0;orthogonalLoop=1;jettySize=auto;html=1;entryX=0.5;entryY=0;entryDx=0;entryDy=0;" parent="1" source="_XFKa4FcC08eO0B2JzQi-78" target="_XFKa4FcC08eO0B2JzQi-79" edge="1"><mxGeometry relative="1" as="geometry"/></mxCell><mxCell id="_XFKa4FcC08eO0B2JzQi-78" value="Security Context Holder" style="rounded=0;whiteSpace=wrap;html=1;" parent="1" vertex="1"><mxGeometry x="500" y="630" width="120" height="60" as="geometry"/></mxCell><mxCell id="_XFKa4FcC08eO0B2JzQi-80" style="edgeStyle=orthogonalEdgeStyle;rounded=0;orthogonalLoop=1;jettySize=auto;html=1;labelBorderColor=#456aed;" parent="1" source="_XFKa4FcC08eO0B2JzQi-79" target="_XFKa4FcC08eO0B2JzQi-66" edge="1"><mxGeometry relative="1" as="geometry"/></mxCell><mxCell id="_XFKa4FcC08eO0B2JzQi-92" value="&lt;font style=&quot;font-size: 14px;&quot;&gt;HTTP 200&amp;nbsp; &amp;nbsp;{ JSON }&lt;/font&gt;" style="edgeLabel;html=1;align=center;verticalAlign=middle;resizable=0;points=[];" parent="_XFKa4FcC08eO0B2JzQi-80" vertex="1" connectable="0"><mxGeometry x="-0.0124" y="-1" relative="1" as="geometry"><mxPoint as="offset"/></mxGeometry></mxCell><mxCell id="_XFKa4FcC08eO0B2JzQi-79" value="&lt;font style=&quot;font-size: 19px;&quot;&gt;Controller&lt;/font&gt;" style="image;aspect=fixed;perimeter=ellipsePerimeter;html=1;align=center;shadow=0;dashed=0;spacingTop=3;image=img/lib/active_directory/generic_server.svg;" parent="1" vertex="1"><mxGeometry x="700" y="690" width="86.8" height="155" as="geometry"/></mxCell><mxCell id="_XFKa4FcC08eO0B2JzQi-87" style="edgeStyle=orthogonalEdgeStyle;rounded=0;orthogonalLoop=1;jettySize=auto;html=1;entryX=0.855;entryY=0;entryDx=0;entryDy=4.35;entryPerimeter=0;" parent="1" source="_XFKa4FcC08eO0B2JzQi-70" target="_XFKa4FcC08eO0B2JzQi-69" edge="1"><mxGeometry relative="1" as="geometry"/></mxCell><mxCell id="_XFKa4FcC08eO0B2JzQi-89" style="edgeStyle=orthogonalEdgeStyle;rounded=0;orthogonalLoop=1;jettySize=auto;html=1;entryX=1.006;entryY=0.771;entryDx=0;entryDy=0;entryPerimeter=0;" parent="1" source="_XFKa4FcC08eO0B2JzQi-69" target="_XFKa4FcC08eO0B2JzQi-70" edge="1"><mxGeometry relative="1" as="geometry"><Array as="points"><mxPoint x="910" y="382"/></Array></mxGeometry></mxCell><mxCell id="_XFKa4FcC08eO0B2JzQi-94" style="edgeStyle=orthogonalEdgeStyle;rounded=0;orthogonalLoop=1;jettySize=auto;html=1;entryX=0.5;entryY=0;entryDx=0;entryDy=0;entryPerimeter=0;" parent="1" source="_XFKa4FcC08eO0B2JzQi-76" target="_XFKa4FcC08eO0B2JzQi-66" edge="1"><mxGeometry relative="1" as="geometry"><Array as="points"><mxPoint x="260" y="450"/><mxPoint x="40" y="450"/><mxPoint x="40" y="490"/></Array></mxGeometry></mxCell><mxCell id="_XFKa4FcC08eO0B2JzQi-96" value="&lt;font style=&quot;font-size: 14px;&quot;&gt;HTTP 403&amp;nbsp; &amp;nbsp;&lt;/font&gt;&lt;div&gt;&lt;font style=&quot;font-size: 14px;&quot;&gt;Usuรกrio nรฃo existe&lt;/font&gt;&lt;/div&gt;" style="edgeLabel;html=1;align=center;verticalAlign=middle;resizable=0;points=[];fontSize=14;" parent="_XFKa4FcC08eO0B2JzQi-94" vertex="1" connectable="0"><mxGeometry x="0.0313" y="2" relative="1" as="geometry"><mxPoint as="offset"/></mxGeometry></mxCell><mxCell id="_XFKa4FcC08eO0B2JzQi-95" style="edgeStyle=orthogonalEdgeStyle;rounded=0;orthogonalLoop=1;jettySize=auto;html=1;entryX=0.5;entryY=0;entryDx=0;entryDy=0;entryPerimeter=0;" parent="1" source="_XFKa4FcC08eO0B2JzQi-74" target="_XFKa4FcC08eO0B2JzQi-66" edge="1"><mxGeometry relative="1" as="geometry"><Array as="points"><mxPoint x="414" y="400"/><mxPoint x="25" y="400"/></Array></mxGeometry></mxCell><mxCell id="_XFKa4FcC08eO0B2JzQi-98" value="&lt;font style=&quot;font-size: 14px;&quot;&gt;HTTP 403&amp;nbsp; &amp;nbsp;Token Invรกlido&lt;/font&gt;" style="edgeLabel;html=1;align=center;verticalAlign=middle;resizable=0;points=[];" parent="_XFKa4FcC08eO0B2JzQi-95" vertex="1" connectable="0"><mxGeometry x="0.1559" y="3" relative="1" as="geometry"><mxPoint as="offset"/></mxGeometry></mxCell><mxCell id="_XFKa4FcC08eO0B2JzQi-100" value="&lt;font style=&quot;font-size: 18px;&quot;&gt;[ Fluxo de Autenticaรงรฃo ]&lt;/font&gt;" style="text;html=1;align=center;verticalAlign=middle;whiteSpace=wrap;rounded=0;" parent="1" vertex="1"><mxGeometry x="110" y="220" width="280" height="30" as="geometry"/></mxCell><mxCell id="_XFKa4FcC08eO0B2JzQi-101" value="&lt;font style=&quot;font-size: 15px;&quot;&gt;Contexto da aplicaรงรฃo&lt;/font&gt;" style="text;html=1;align=center;verticalAlign=middle;whiteSpace=wrap;rounded=0;fontSize=15;" parent="1" vertex="1"><mxGeometry x="110" y="250" width="280" height="30" as="geometry"/></mxCell></root></mxGraphModel></diagram></mxfile>